<svg xmlns="http://www.w3.org/2000/svg" viewBox="0 0 757.57576 200"><defs><style>.a{fill:blue;}.b{fill:#fff;}</style></defs><title>squid-page-logo</title><path d="M320.17423,91.07422a2.70505,2.70505,0,0,0-.373-1.42627,3.50582,3.50582,0,0,0-1.3291-1.15039,12.15015,12.15015,0,0,0-2.54395-.98828q-1.58789-.45337-4.01758-.90723a38.7486,38.7486,0,0,1-5.623-1.53955,17.6957,17.6957,0,0,1-4.3584-2.23584,10.13631,10.13631,0,0,1-2.83594-3.03027,7.58706,7.58706,0,0,1-1.02051-3.95361,8.79979,8.79979,0,0,1,1.03711-4.14795,10.50933,10.50933,0,0,1,2.98145-3.46729,15.1583,15.1583,0,0,1,4.73145-2.36572,20.94262,20.94262,0,0,1,6.28613-.875,23.29293,23.29293,0,0,1,6.5791.85889,15.54927,15.54927,0,0,1,4.94141,2.36572A10.3788,10.3788,0,0,1,327.725,71.792a9.6851,9.6851,0,0,1,1.06934,4.50439h-9.00977a4.27868,4.27868,0,0,0-1.65234-3.41846,7.72383,7.72383,0,0,0-5.02344-1.37744,8.213,8.213,0,0,0-4.74707,1.13428,3.33421,3.33421,0,0,0-1.60449,2.78711,3.247,3.247,0,0,0,.32422,1.44189,3.09189,3.09189,0,0,0,1.15039,1.19922,9.155,9.155,0,0,0,2.25293.97217,25.0735,25.0735,0,0,0,3.62891.76123,47.79867,47.79867,0,0,1,5.89844,1.32861,18.12857,18.12857,0,0,1,4.69824,2.09033,9.77156,9.77156,0,0,1,3.09473,3.11133,8.19457,8.19457,0,0,1,1.11816,4.3584,8.51045,8.51045,0,0,1-1.11816,4.29395,10.36069,10.36069,0,0,1-3.17578,3.38623,16.06745,16.06745,0,0,1-4.97363,2.22021,24.81784,24.81784,0,0,1-6.51367.79395,21.55689,21.55689,0,0,1-6.98437-1.03711,16.22482,16.22482,0,0,1-5.07129-2.70605,11.48292,11.48292,0,0,1-3.09473-3.7915,9.50743,9.50743,0,0,1-1.05371-4.26123h8.58887a4.92239,4.92239,0,0,0,.77734,2.44629,5.33355,5.33355,0,0,0,1.75,1.65283,8.04662,8.04662,0,0,0,2.44629.92383,13.65632,13.65632,0,0,0,2.83594.2915,9.86065,9.86065,0,0,0,5.08789-1.06934A3.16279,3.16279,0,0,0,320.17423,91.07422Z"/><path d="M336.474,82.875a27.48154,27.48154,0,0,1,.90723-7.2915,16.62313,16.62313,0,0,1,2.67383-5.65479,12.27656,12.27656,0,0,1,4.3418-3.64551,12.9866,12.9866,0,0,1,5.915-1.29639,11.57666,11.57666,0,0,1,5.20117,1.10156,11.43369,11.43369,0,0,1,3.83984,3.11133l.55078-3.56494h7.93945v48.54492h-9.041V97.71729a10.99559,10.99559,0,0,1-3.69434,2.68994,11.84177,11.84177,0,0,1-4.86133.93945,12.13625,12.13625,0,0,1-10.17578-5.07129,17.48511,17.48511,0,0,1-2.67285-5.63867,25.85712,25.85712,0,0,1-.92383-7.08105Zm9.00879.68066a20.49741,20.49741,0,0,0,.38867,4.083,10.929,10.929,0,0,0,1.23145,3.35449,6.52792,6.52792,0,0,0,2.1875,2.28467,6.0111,6.0111,0,0,0,3.25684.84229,7.21344,7.21344,0,0,0,3.873-.93994,6.66058,6.66058,0,0,0,2.38184-2.59229V75.68066a6.37082,6.37082,0,0,0-2.38184-2.51123,7.3911,7.3911,0,0,0-3.80762-.89111,6.10125,6.10125,0,0,0-3.25684.82617,6.55917,6.55917,0,0,0-2.2041,2.25244,10.72826,10.72826,0,0,0-1.26367,3.354,20.21548,20.21548,0,0,0-.40527,4.16406Z"/><path d="M399.56974,95.77295a13.53106,13.53106,0,0,1-4.29395,4.11572,10.57,10.57,0,0,1-5.49316,1.49072,14.23323,14.23323,0,0,1-4.99023-.84277,9.56421,9.56421,0,0,1-3.88867-2.67334,12.65755,12.65755,0,0,1-2.51172-4.6665,22.90038,22.90038,0,0,1-.89062-6.82178V65.63477h9.00879V86.43994a17.78153,17.78153,0,0,0,.30762,3.59717,5.80681,5.80681,0,0,0,.98828,2.34912,3.76319,3.76319,0,0,0,1.78223,1.28027,8.13366,8.13366,0,0,0,2.69043.38867,8.35422,8.35422,0,0,0,4.375-1.02051,6.61907,6.61907,0,0,0,2.55957-2.80322V65.63477h9.042v35.064h-8.167Z"/><path d="M419.435,65.63477h19.08691V93.375H448.017v7.32373H419.435V93.375h9.98047V72.99121H419.435Zm9.333-8.97656a4.95811,4.95811,0,0,1,.37207-1.92822,4.32317,4.32317,0,0,1,1.05371-1.52295,4.869,4.869,0,0,1,1.63672-.98828,6.02809,6.02809,0,0,1,2.12207-.35645,5.28716,5.28716,0,0,1,3.80762,1.34473,4.92822,4.92822,0,0,1,0,6.90234,5.28532,5.28532,0,0,1-3.80762,1.34521,6.02809,6.02809,0,0,1-2.12207-.35645,4.87,4.87,0,0,1-1.63672-.98877,4.31,4.31,0,0,1-1.05371-1.52295A4.95112,4.95112,0,0,1,428.768,56.6582Z"/><path d="M455.92521,82.90771a27.06617,27.06617,0,0,1,.92285-7.2915,16.86863,16.86863,0,0,1,2.70605-5.67139,12.44406,12.44406,0,0,1,4.32617-3.66162,12.63485,12.63485,0,0,1,5.81738-1.29639,11.22026,11.22026,0,0,1,4.84473.98828,11.60606,11.60606,0,0,1,3.71094,2.80322v-17.856h9.041v49.77637h-8.13379l-.4541-3.66211a11.87722,11.87722,0,0,1-3.88867,3.17578,11.31081,11.31081,0,0,1-5.18457,1.13428,12.12,12.12,0,0,1-5.75293-1.34473,12.76547,12.76547,0,0,1-4.30957-3.71045,17.3083,17.3083,0,0,1-2.70605-5.62256,25.43894,25.43894,0,0,1-.93945-7.08105Zm9.00879.68018a21.28846,21.28846,0,0,0,.37207,4.09961,10.245,10.245,0,0,0,1.21582,3.30566,6.38213,6.38213,0,0,0,2.1709,2.21973,6.11454,6.11454,0,0,0,3.24121.81006,6.94574,6.94574,0,0,0,3.87207-1.00439,7.13462,7.13462,0,0,0,2.44727-2.75488V76.06982a7.02228,7.02228,0,0,0-2.43066-2.771,6.89323,6.89323,0,0,0-3.82422-.98828,6.09935,6.09935,0,0,0-3.25684.82666,6.39159,6.39159,0,0,0-2.1875,2.26807,10.93988,10.93988,0,0,0-1.23145,3.37061,20.9227,20.9227,0,0,0-.38867,4.13184Z"/><path d="M505.79825,95.48145a6.43147,6.43147,0,0,1,.4209-2.34961,5.25793,5.25793,0,0,1,1.23145-1.87939,5.97939,5.97939,0,0,1,1.97656-1.26416,7.56958,7.56958,0,0,1,5.25,0,5.79044,5.79044,0,0,1,1.96094,1.26416,5.57415,5.57415,0,0,1,1.23145,1.87939,6.22183,6.22183,0,0,1,.4375,2.34961,6.00948,6.00948,0,0,1-.4375,2.30078,5.46355,5.46355,0,0,1-3.19238,3.11084,7.82207,7.82207,0,0,1-5.25,0,5.7635,5.7635,0,0,1-1.97656-1.24756,5.28934,5.28934,0,0,1-1.23145-1.86328A6.2109,6.2109,0,0,1,505.79825,95.48145Z"/><path d="M552.04239,94.15283a8.14791,8.14791,0,0,0,2.52832-.38916,6.75575,6.75575,0,0,0,2.10645-1.10156,5.01912,5.01912,0,0,0,1.40918-1.71777,4.39707,4.39707,0,0,0,.4375-2.23584h8.49023a10.46255,10.46255,0,0,1-1.11719,5.05518,12.48746,12.48746,0,0,1-3.22461,4.01855,15.48706,15.48706,0,0,1-4.748,2.64111,17.0552,17.0552,0,0,1-5.71973.95605,17.40268,17.40268,0,0,1-7.16211-1.37744,14.39227,14.39227,0,0,1-5.13574-3.77539,16.28977,16.28977,0,0,1-3.11133-5.62256,22.14949,22.14949,0,0,1-1.05273-6.91846v-.97266a22.46821,22.46821,0,0,1,1.03613-6.91846,15.95472,15.95472,0,0,1,3.11133-5.62256,14.77969,14.77969,0,0,1,5.13672-3.7915,17.02332,17.02332,0,0,1,7.11328-1.39355,17.90239,17.90239,0,0,1,5.99512.97217,14.18152,14.18152,0,0,1,4.74707,2.73828A12.1667,12.1667,0,0,1,565.977,72.9751a13.16143,13.16143,0,0,1,1.03711,5.62256h-8.49023a5.92006,5.92006,0,0,0-.38867-2.46289,5.53639,5.53639,0,0,0-1.3291-2.00928,6.57853,6.57853,0,0,0-2.10645-1.34473,7.05118,7.05118,0,0,0-2.68945-.50244,6.12682,6.12682,0,0,0-5.752,3.208,10.54456,10.54456,0,0,0-1.167,3.33789,21.82571,21.82571,0,0,0-.33984,3.88867v.97266a23.25461,23.25461,0,0,0,.32422,3.937,10.06426,10.06426,0,0,0,1.15039,3.33789,6.47214,6.47214,0,0,0,2.23535,2.31738A6.69291,6.69291,0,0,0,552.04239,94.15283Z"/><path d="M598.9672,91.07422a2.70505,2.70505,0,0,0-.373-1.42627,3.50581,3.50581,0,0,0-1.3291-1.15039,12.15015,12.15015,0,0,0-2.54395-.98828q-1.58789-.45337-4.01758-.90723a38.7486,38.7486,0,0,1-5.623-1.53955,17.71318,17.71318,0,0,1-4.3584-2.23584,10.14877,10.14877,0,0,1-2.83594-3.03027,7.58706,7.58706,0,0,1-1.02051-3.95361,8.81131,8.81131,0,0,1,1.03711-4.14795,10.52072,10.52072,0,0,1,2.98145-3.46729,15.1583,15.1583,0,0,1,4.73145-2.36572,20.94262,20.94262,0,0,1,6.28613-.875,23.29293,23.29293,0,0,1,6.5791.85889,15.54927,15.54927,0,0,1,4.94141,2.36572A10.3788,10.3788,0,0,1,606.518,71.792a9.6851,9.6851,0,0,1,1.06934,4.50439h-9.00977a4.27868,4.27868,0,0,0-1.65234-3.41846,7.72383,7.72383,0,0,0-5.02344-1.37744,8.213,8.213,0,0,0-4.74707,1.13428,3.33421,3.33421,0,0,0-1.60449,2.78711,3.247,3.247,0,0,0,.32422,1.44189,3.09189,3.09189,0,0,0,1.15039,1.19922,9.155,9.155,0,0,0,2.25293.97217,25.07351,25.07351,0,0,0,3.62891.76123,47.79867,47.79867,0,0,1,5.89844,1.32861,18.12857,18.12857,0,0,1,4.69824,2.09033,9.77156,9.77156,0,0,1,3.09473,3.11133,8.19457,8.19457,0,0,1,1.11816,4.3584,8.51045,8.51045,0,0,1-1.11816,4.29395,10.36069,10.36069,0,0,1-3.17578,3.38623,16.06745,16.06745,0,0,1-4.97363,2.22021,24.81784,24.81784,0,0,1-6.51367.79395,21.55689,21.55689,0,0,1-6.98437-1.03711,16.23576,16.23576,0,0,1-5.07129-2.70605,11.49506,11.49506,0,0,1-3.09473-3.7915,9.50743,9.50743,0,0,1-1.05371-4.26123h8.58789a4.93274,4.93274,0,0,0,.77832,2.44629,5.33355,5.33355,0,0,0,1.75,1.65283,8.04662,8.04662,0,0,0,2.44629.92383,13.65632,13.65632,0,0,0,2.83594.2915,9.86065,9.86065,0,0,0,5.08789-1.06934A3.16279,3.16279,0,0,0,598.9672,91.07422Z"/><path d="M638.79532,91.07422a2.70505,2.70505,0,0,0-.373-1.42627,3.50581,3.50581,0,0,0-1.3291-1.15039,12.15015,12.15015,0,0,0-2.54395-.98828q-1.58789-.45337-4.01758-.90723a38.7486,38.7486,0,0,1-5.623-1.53955,17.71318,17.71318,0,0,1-4.3584-2.23584,10.14877,10.14877,0,0,1-2.83594-3.03027,7.58706,7.58706,0,0,1-1.02051-3.95361,8.81131,8.81131,0,0,1,1.03711-4.14795,10.52072,10.52072,0,0,1,2.98145-3.46729,15.1583,15.1583,0,0,1,4.73145-2.36572,20.94262,20.94262,0,0,1,6.28613-.875,23.29293,23.29293,0,0,1,6.5791.85889,15.54927,15.54927,0,0,1,4.94141,2.36572,10.3788,10.3788,0,0,1,3.0957,3.58057,9.6851,9.6851,0,0,1,1.06934,4.50439h-9.00977a4.27868,4.27868,0,0,0-1.65234-3.41846,7.72383,7.72383,0,0,0-5.02344-1.37744,8.213,8.213,0,0,0-4.74707,1.13428,3.33421,3.33421,0,0,0-1.60449,2.78711,3.247,3.247,0,0,0,.32422,1.44189,3.09189,3.09189,0,0,0,1.15039,1.19922,9.155,9.155,0,0,0,2.25293.97217,25.07351,25.07351,0,0,0,3.62891.76123,47.79867,47.79867,0,0,1,5.89844,1.32861,18.12857,18.12857,0,0,1,4.69824,2.09033,9.77156,9.77156,0,0,1,3.09473,3.11133,8.19457,8.19457,0,0,1,1.11816,4.3584,8.51045,8.51045,0,0,1-1.11816,4.29395,10.36069,10.36069,0,0,1-3.17578,3.38623,16.06745,16.06745,0,0,1-4.97363,2.22021,24.81784,24.81784,0,0,1-6.51367.79395,21.55689,21.55689,0,0,1-6.98437-1.03711,16.23576,16.23576,0,0,1-5.07129-2.70605,11.49506,11.49506,0,0,1-3.09473-3.7915A9.50743,9.50743,0,0,1,615.559,89.5835h8.58789a4.93274,4.93274,0,0,0,.77832,2.44629,5.33355,5.33355,0,0,0,1.75,1.65283,8.04662,8.04662,0,0,0,2.44629.92383,13.65632,13.65632,0,0,0,2.83594.2915,9.86065,9.86065,0,0,0,5.08789-1.06934A3.16279,3.16279,0,0,0,638.79532,91.07422Z"/><path d="M305.62052,151.24121h-5.24023l-2.01074,4.21191H296.269l7.92188-16.26758h1.69727l2.17969,16.26758h-1.93359Zm-4.40234-1.79883h4.19043l-.84961-7.03906Z"/><path d="M329.31778,152.481l.05566.75977.32422-.77051,4.71484-9.106H336.558l-6.68164,12.08887h-1.542l-2.92676-12.08887,1.94336-.01123Z"/><path d="M340.144,151.19629l-.06641,1.542.61426-1.77637,3.17285-7.59766h1.30762l.52441,7.84326-.02148,1.7207.5918-1.76562,2.66992-7.79834h1.833l-4.59277,12.08887h-1.58594l-.55859-7.519.0332-1.7207-.64844,1.94385-3.0498,7.2959h-1.59766l-.40234-12.08887h1.74316Z"/><path d="M360.90275,149.18506H352.602l.30176-1.69824h8.30078Z"/><path d="M375.46134,149.47559a11.53116,11.53116,0,0,1-.30762,1.50293,9.06458,9.06458,0,0,1-.53027,1.44678,7.57253,7.57253,0,0,1-.77148,1.2959,5.2929,5.2929,0,0,1-1.02734,1.05029,4.65157,4.65157,0,0,1-4.68164.5083,3.30778,3.30778,0,0,1-1.374-1.21191l-.40234,1.38525h-1.877l2.98242-17.16113h2.02246l-1.20605,6.37939a4.69223,4.69223,0,0,1,1.55273-1.16211,4.34309,4.34309,0,0,1,1.91016-.36865,3.8645,3.8645,0,0,1,1.43555.29053,3.27256,3.27256,0,0,1,1.06152.7207,3.72325,3.72325,0,0,1,.71484,1.04492,5.83834,5.83834,0,0,1,.41406,1.26807,8.19759,8.19759,0,0,1,.16211,1.38525,9.50262,9.50262,0,0,1-.05664,1.39111Zm-1.98926-.24561a9.5637,9.5637,0,0,0,.05078-1.43555,4.51031,4.51031,0,0,0-.2627-1.39111,2.48943,2.48943,0,0,0-.7373-1.06152,2.15969,2.15969,0,0,0-1.375-.44678,3.13885,3.13885,0,0,0-.97168.12256,3.21366,3.21366,0,0,0-.832.38574,4.01082,4.01082,0,0,0-.71582.59766,6.31649,6.31649,0,0,0-.6084.74854l-.916,5.31836a2.99852,2.99852,0,0,0,.916,1.34082,2.45186,2.45186,0,0,0,1.542.5249,2.99223,2.99223,0,0,0,1.6084-.374,3.72849,3.72849,0,0,0,1.15137-1.04492,5.33287,5.33287,0,0,0,.7373-1.45264,9.08542,9.08542,0,0,0,.37988-1.59766Z"/><path d="M385.72892,155.45313a2.5522,2.5522,0,0,1-.08984-.65918,6.59686,6.59686,0,0,1,.03418-.65918,6.90622,6.90622,0,0,1-1.72656,1.12842,4.57845,4.57845,0,0,1-2.0166.40234,4.35849,4.35849,0,0,1-1.43555-.25732,3.54563,3.54563,0,0,1-1.17383-.69238,3.06678,3.06678,0,0,1-.77051-1.084,3.15278,3.15278,0,0,1-.22852-1.44092,3.85261,3.85261,0,0,1,.31836-1.38574,3.717,3.717,0,0,1,.709-1.05566,4.19648,4.19648,0,0,1,1.00586-.76562,6.37924,6.37924,0,0,1,1.21191-.5083,7.86977,7.86977,0,0,1,1.33008-.2793,11.2396,11.2396,0,0,1,1.35742-.0835l2.30078.01123.14551-.96094a2.24929,2.24929,0,0,0-.084-1.00586,1.84968,1.84968,0,0,0-.46289-.7373,2.05484,2.05484,0,0,0-.76562-.458,3.25389,3.25389,0,0,0-1-.16748,3.65035,3.65035,0,0,0-.94434.10059,2.94925,2.94925,0,0,0-.84863.34619,2.41717,2.41717,0,0,0-.665.59766,2.178,2.178,0,0,0-.3916.86621l-2.02148.01123a3.24868,3.24868,0,0,1,.5918-1.59229,4.26711,4.26711,0,0,1,1.21191-1.123,5.57672,5.57672,0,0,1,1.58105-.66455,6.49408,6.49408,0,0,1,1.6875-.207,5.75338,5.75338,0,0,1,1.709.29053,3.74185,3.74185,0,0,1,1.35742.78809,3.34788,3.34788,0,0,1,.85547,1.26807,3.66625,3.66625,0,0,1,.18945,1.72021l-.93848,5.62012a8.033,8.033,0,0,0-.10645,1.229,4.98906,4.98906,0,0,0,.13965,1.21777l-.02246.18994Zm-3.4082-1.564a3.91607,3.91607,0,0,0,2-.48633,4.73849,4.73849,0,0,0,1.55371-1.35742l.43555-2.458-1.73242-.01123a11.92578,11.92578,0,0,0-1.3125.07813,5.02935,5.02935,0,0,0-1.3125.32422,2.93317,2.93317,0,0,0-1.05078.7041,2.04834,2.04834,0,0,0-.52441,1.20654,1.9436,1.9436,0,0,0,.06641.84912,1.47818,1.47818,0,0,0,.3916.62012,1.81915,1.81915,0,0,0,.64746.38525A2.70228,2.70228,0,0,0,382.32071,153.88916Z"/><path d="M399.76212,152.16846a1.17351,1.17351,0,0,0-.168-.84912,1.80413,1.80413,0,0,0-.62012-.54736,3.93505,3.93505,0,0,0-.84375-.34082q-.4585-.12891-.82617-.21826-.6709-.167-1.39648-.41309a5.93255,5.93255,0,0,1-1.33008-.63672,3.21464,3.21464,0,0,1-.97754-.978,2.4024,2.4024,0,0,1-.34082-1.42432,2.97455,2.97455,0,0,1,.251-1.123,3.51486,3.51486,0,0,1,.59863-.916,3.93507,3.93507,0,0,1,.85449-.70947,5.44923,5.44923,0,0,1,1.02734-.49707,6.38812,6.38812,0,0,1,1.10645-.29053,5.83976,5.83976,0,0,1,2.748.18457,4.15444,4.15444,0,0,1,1.37988.72021,3.43711,3.43711,0,0,1,.93848,1.17334,3.51737,3.51737,0,0,1,.33594,1.62549l-2-.01123a1.94351,1.94351,0,0,0-.19043-.88232,1.8997,1.8997,0,0,0-.51953-.64258,2.30886,2.30886,0,0,0-.75977-.39648,3.27609,3.27609,0,0,0-.89941-.14551,3.97874,3.97874,0,0,0-.92187.08936,3.42639,3.42639,0,0,0-.8877.31836,2.28866,2.28866,0,0,0-.7041.56982,1.6604,1.6604,0,0,0-.35742.855,1.106,1.106,0,0,0,.16211.82129,1.65391,1.65391,0,0,0,.59766.5083,3.82579,3.82579,0,0,0,.80957.30176c.29492.07422.56445.1377.81055.18994q.4585.11133.94922.25684a8.65613,8.65613,0,0,1,.96094.34619,6.48289,6.48289,0,0,1,.88867.46387,3.13033,3.13033,0,0,1,.7207.61426,2.60509,2.60509,0,0,1,.46875.81006,2.66053,2.66053,0,0,1,.14551,1.02783,3.12158,3.12158,0,0,1-.53613,1.67627,3.964,3.964,0,0,1-1.22949,1.145,5.60447,5.60447,0,0,1-1.63086.64795,6.92652,6.92652,0,0,1-1.74316.18457,6.08466,6.08466,0,0,1-1.72559-.26855,4.64946,4.64946,0,0,1-1.48047-.75391,3.71354,3.71354,0,0,1-1.03418-1.229,3.42286,3.42286,0,0,1-.3623-1.70361l2.01074.01074a2.31739,2.31739,0,0,0,.22363,1.00586,1.97921,1.97921,0,0,0,.56934.69824,2.50949,2.50949,0,0,0,.83789.41309,3.66256,3.66256,0,0,0,1.02832.13965,4.6877,4.6877,0,0,0,.94922-.07812,3.85836,3.85836,0,0,0,.9502-.2959,2.2996,2.2996,0,0,0,.76465-.56445A1.661,1.661,0,0,0,399.76212,152.16846Z"/><path d="M410.08536,155.67676a4.85976,4.85976,0,0,1-2.16211-.50293,4.46422,4.46422,0,0,1-1.53613-1.27393,5.02847,5.02847,0,0,1-.86621-1.832,6.603,6.603,0,0,1-.16113-2.20117l.05566-.48047a7.77753,7.77753,0,0,1,.3457-1.56982,7.95,7.95,0,0,1,.665-1.48,7.45569,7.45569,0,0,1,.9502-1.29639,6.17928,6.17928,0,0,1,1.20605-1.022,5.64745,5.64745,0,0,1,1.44141-.665,5.17227,5.17227,0,0,1,1.63672-.2124,4.32724,4.32724,0,0,1,2.1123.542,3.87122,3.87122,0,0,1,1.3623,1.335,5.13581,5.13581,0,0,1,.6709,1.88281,7.59283,7.59283,0,0,1,.02246,2.17334l-.14551.92725H407.3588a4.55617,4.55617,0,0,0,.05078,1.44092,3.62423,3.62423,0,0,0,.49707,1.2627,2.76066,2.76066,0,0,0,.9502.90527,2.90034,2.90034,0,0,0,1.40723.36865,3.96655,3.96655,0,0,0,1.93848-.41357,5.95428,5.95428,0,0,0,1.60352-1.18408l1.16211.98291a5.05728,5.05728,0,0,1-.9668,1.02246,5.68314,5.68314,0,0,1-1.18945.73193,6.09948,6.09948,0,0,1-1.33008.42969A6.51779,6.51779,0,0,1,410.08536,155.67676ZM411.56,144.83887a2.95162,2.95162,0,0,0-1.40723.2627,3.8861,3.8861,0,0,0-1.1123.7876,5.28555,5.28555,0,0,0-.84277,1.12842,8.52426,8.52426,0,0,0-.59277,1.28516l6.30176.022.04492-.20068a3.41064,3.41064,0,0,0-.01172-1.1958,2.72791,2.72791,0,0,0-.4248-1.03906,2.38078,2.38078,0,0,0-1.95508-1.05029Z"/><path d="M418.89005,149.38623a10.00441,10.00441,0,0,1,.30078-1.5083,9.07642,9.07642,0,0,1,.54785-1.46338,7.23189,7.23189,0,0,1,.79883-1.30713,5.57378,5.57378,0,0,1,1.05078-1.05029,4.68774,4.68774,0,0,1,4.58594-.55859,3.379,3.379,0,0,1,1.35156,1.07227l1.16211-6.27881h2.02246l-2.9834,17.16113h-1.832l.21191-1.27393a4.85032,4.85032,0,0,1-1.56934,1.13428,4.399,4.399,0,0,1-1.90527.36328,3.61325,3.61325,0,0,1-1.39062-.29639,3.35,3.35,0,0,1-1.05078-.73145,3.97277,3.97277,0,0,1-.72559-1.05615,6.2397,6.2397,0,0,1-.44141-1.26221,7.49329,7.49329,0,0,1-.19043-1.35791,8.98283,8.98283,0,0,1,.03418-1.35156Zm1.98828.23486a7.59518,7.59518,0,0,0-.05566.93848,6.32833,6.32833,0,0,0,.07227.96631,4.61421,4.61421,0,0,0,.22949.89941,2.46,2.46,0,0,0,.43555.75439,2.08613,2.08613,0,0,0,.69238.53027,2.32882,2.32882,0,0,0,.9834.2124,2.89056,2.89056,0,0,0,1.7373-.458,5.04838,5.04838,0,0,0,1.30176-1.2627l.97168-5.64209a2.83033,2.83033,0,0,0-.92187-1.2124,2.502,2.502,0,0,0-1.458-.46338,2.97294,2.97294,0,0,0-1.63086.36865,3.82734,3.82734,0,0,0-1.17285,1.05566,5.6004,5.6004,0,0,0-.76562,1.46387,7.81379,7.81379,0,0,0-.38574,1.61426Z"/><path d="M452.91056,152.06787a.70818.70818,0,0,0-.05566-.48633,1.09729,1.09729,0,0,0-.3125-.35742,1.99581,1.99581,0,0,0-.47559-.25684,4.98722,4.98722,0,0,0-.55273-.17871q-.27979-.07251-.542-.11719c-.1748-.02979-.32227-.05957-.44141-.08936q-.69287-.16772-1.44629-.43018a5.94165,5.94165,0,0,1-1.375-.68164,3.51964,3.51964,0,0,1-1.01074-1.03369,2.49794,2.49794,0,0,1-.35742-1.47461,3.10686,3.10686,0,0,1,.2793-1.22363,3.55347,3.55347,0,0,1,.665-.97754,4.35021,4.35021,0,0,1,.93848-.7373,5.70556,5.70556,0,0,1,1.12793-.5083,7.662,7.662,0,0,1,1.21289-.29053,6.98434,6.98434,0,0,1,1.19531-.084,7.39311,7.39311,0,0,1,1.78711.24023,4.85261,4.85261,0,0,1,1.55859.70947,3.71288,3.71288,0,0,1,1.10645,1.2124,3.46268,3.46268,0,0,1,.41895,1.74854l-3.0166-.01123a1.619,1.619,0,0,0-.13965-.74854,1.33552,1.33552,0,0,0-.41895-.5083,1.86119,1.86119,0,0,0-.63184-.29053,3.069,3.069,0,0,0-.77637-.09521,4.35517,4.35517,0,0,0-.7373.06738,2.86749,2.86749,0,0,0-.7373.229,1.90148,1.90148,0,0,0-.59766.43555,1.28587,1.28587,0,0,0-.31836.67627.79564.79564,0,0,0,.13379.68115,1.48969,1.48969,0,0,0,.54785.4082,3.39772,3.39772,0,0,0,.72656.229c.25977.05225.4873.09668.68066.13379q.74854.14575,1.56445.38574a6.00189,6.00189,0,0,1,1.48047.65332,3.48092,3.48092,0,0,1,1.084,1.05029,2.57784,2.57784,0,0,1,.374,1.5752,3.20823,3.20823,0,0,1-.30176,1.25732,3.51479,3.51479,0,0,1-.69824.97754,4.15048,4.15048,0,0,1-.99414.7207,6.59973,6.59973,0,0,1-1.18457.48047,7.71106,7.71106,0,0,1-1.2627.26221,8.73875,8.73875,0,0,1-1.22266.06738,6.8678,6.8678,0,0,1-1.82129-.26855,5.16973,5.16973,0,0,1-1.60352-.76514,4.04285,4.04285,0,0,1-1.15039-1.2627,3.45731,3.45731,0,0,1-.44141-1.78174l2.87109.01123a1.91007,1.91007,0,0,0,.21191.83789,1.60713,1.60713,0,0,0,.50879.564,2.195,2.195,0,0,0,.72656.31836,3.57977,3.57977,0,0,0,.86523.10059,5.84829,5.84829,0,0,0,.76563-.05566,3.25353,3.25353,0,0,0,.793-.20654,1.96289,1.96289,0,0,0,.64844-.41895A1.25827,1.25827,0,0,0,452.91056,152.06787Z"/><path d="M458.89982,149.38623a10.88107,10.88107,0,0,1,.51953-2.26807,7.32471,7.32471,0,0,1,1.05566-2.02783,5.16669,5.16669,0,0,1,1.6416-1.44141,4.37817,4.37817,0,0,1,2.2793-.5083,3.89668,3.89668,0,0,1,1.62012.37988,3.18887,3.18887,0,0,1,1.24023,1.084l.46973-1.24023h2.70313l-2.9043,16.73682h-3.03906l1.10645-5.687a4.765,4.765,0,0,1-1.36328.94971,3.64551,3.64551,0,0,1-1.62012.313,3.5846,3.5846,0,0,1-1.41895-.28516,3.358,3.358,0,0,1-1.05566-.72607,3.6617,3.6617,0,0,1-.71484-1.05029,6.24378,6.24378,0,0,1-.41992-1.2627,7.86428,7.86428,0,0,1-.17285-1.36865,8.58028,8.58028,0,0,1,.05078-1.36279Zm3.00488.23486q-.03369.33472-.0498.72607a5.9777,5.9777,0,0,0,.0166.78223,4.11762,4.11762,0,0,0,.13379.75391,2.16665,2.16665,0,0,0,.2959.64795,1.525,1.525,0,0,0,.50879.46387,1.60938,1.60938,0,0,0,.77051.18994,2.38133,2.38133,0,0,0,1.30176-.30713,3.44659,3.44659,0,0,0,1-.89941l.916-5.17285a1.8095,1.8095,0,0,0-.72559-.87158,2.47,2.47,0,0,0-2.41895.02783,2.89383,2.89383,0,0,0-.89941.894,4.61158,4.61158,0,0,0-.55371,1.22314,8.28084,8.28084,0,0,0-.27344,1.30713Z"/><path d="M479.45743,153.74365a7.21663,7.21663,0,0,1-.71484.78223,4.81324,4.81324,0,0,1-.81641.62012,3.94011,3.94011,0,0,1-.93262.40771,3.46056,3.46056,0,0,1-1.04492.13428,3.76719,3.76719,0,0,1-1.29-.22363,2.96643,2.96643,0,0,1-.95508-.58105,3.01966,3.01966,0,0,1-.6543-.86035,4.673,4.673,0,0,1-.38477-1.06152,5.8984,5.8984,0,0,1-.15137-1.19531,9.41558,9.41558,0,0,1,.05078-1.25146l1.19531-7.15039h3.02734l-1.19531,7.18408a8.87281,8.87281,0,0,0-.06152.93311,2.41594,2.41594,0,0,0,.123.832,1.25173,1.25173,0,0,0,.44141.60352,1.52048,1.52048,0,0,0,.89355.24561,2.82471,2.82471,0,0,0,1.44727-.31836,3.28253,3.28253,0,0,0,1.10059-.98877l1.48633-8.49121H484.06l-2.09961,12.08887h-2.7373Z"/><path d="M493.16642,155.45313a2.5522,2.5522,0,0,1-.08984-.65918,6.59686,6.59686,0,0,1,.03418-.65918,6.90622,6.90622,0,0,1-1.72656,1.12842,4.57845,4.57845,0,0,1-2.0166.40234,4.35849,4.35849,0,0,1-1.43555-.25732,3.54563,3.54563,0,0,1-1.17383-.69238,3.06678,3.06678,0,0,1-.77051-1.084,3.15278,3.15278,0,0,1-.22852-1.44092,3.85261,3.85261,0,0,1,.31836-1.38574,3.717,3.717,0,0,1,.709-1.05566,4.19648,4.19648,0,0,1,1.00586-.76562,6.37924,6.37924,0,0,1,1.21191-.5083,7.86977,7.86977,0,0,1,1.33008-.2793,11.2396,11.2396,0,0,1,1.35742-.0835l2.30078.01123.14551-.96094a2.24929,2.24929,0,0,0-.084-1.00586,1.84968,1.84968,0,0,0-.46289-.7373,2.05484,2.05484,0,0,0-.76562-.458,3.25389,3.25389,0,0,0-1-.16748,3.65035,3.65035,0,0,0-.94434.10059,2.94925,2.94925,0,0,0-.84863.34619,2.41717,2.41717,0,0,0-.665.59766,2.178,2.178,0,0,0-.3916.86621l-2.02148.01123a3.24868,3.24868,0,0,1,.5918-1.59229,4.26711,4.26711,0,0,1,1.21191-1.123,5.57672,5.57672,0,0,1,1.58105-.66455,6.49408,6.49408,0,0,1,1.6875-.207,5.75338,5.75338,0,0,1,1.709.29053,3.74185,3.74185,0,0,1,1.35742.78809,3.34788,3.34788,0,0,1,.85547,1.26807,3.66625,3.66625,0,0,1,.18945,1.72021l-.93848,5.62012a8.033,8.033,0,0,0-.10645,1.229,4.98906,4.98906,0,0,0,.13965,1.21777l-.02246.18994Zm-3.4082-1.564a3.91607,3.91607,0,0,0,2-.48633,4.73849,4.73849,0,0,0,1.55371-1.35742l.43555-2.458-1.73242-.01123a11.92578,11.92578,0,0,0-1.3125.07813,5.02935,5.02935,0,0,0-1.3125.32422,2.93317,2.93317,0,0,0-1.05078.7041,2.04834,2.04834,0,0,0-.52441,1.20654,1.9436,1.9436,0,0,0,.06641.84912,1.47818,1.47818,0,0,0,.3916.62012,1.81915,1.81915,0,0,0,.64746.38525A2.70228,2.70228,0,0,0,489.75821,153.88916Z"/><path d="M508.46134,143.11865q.5376.011,1.07324.07227a4.50625,4.50625,0,0,1,1.0498.25146l-.51367,2.01123q-.53613-.123-1.07227-.20117a8.72281,8.72281,0,0,0-1.084-.08936,4.239,4.239,0,0,0-2.41309.64795,5.16266,5.16266,0,0,0-1.67676,1.877l-1.33984,7.76514h-2.02246l2.08887-12.08887h1.92188l-.335,1.92188a7.89425,7.89425,0,0,1,.90527-.894,5.8472,5.8472,0,0,1,1.0166-.687,5.00668,5.00668,0,0,1,1.13379-.43555A5.16432,5.16432,0,0,1,508.46134,143.11865Z"/><path d="M517.52189,155.67676a4.85976,4.85976,0,0,1-2.16211-.50293,4.46422,4.46422,0,0,1-1.53613-1.27393,5.02847,5.02847,0,0,1-.86621-1.832,6.603,6.603,0,0,1-.16113-2.20117l.05566-.48047a7.77753,7.77753,0,0,1,.3457-1.56982,7.95,7.95,0,0,1,.665-1.48,7.45569,7.45569,0,0,1,.9502-1.29639,6.17928,6.17928,0,0,1,1.20605-1.022,5.64745,5.64745,0,0,1,1.44141-.665,5.17227,5.17227,0,0,1,1.63672-.2124,4.32724,4.32724,0,0,1,2.1123.542,3.87122,3.87122,0,0,1,1.3623,1.335,5.13581,5.13581,0,0,1,.6709,1.88281,7.59283,7.59283,0,0,1,.02246,2.17334l-.14551.92725h-8.32422a4.55618,4.55618,0,0,0,.05078,1.44092,3.62423,3.62423,0,0,0,.49707,1.2627,2.76066,2.76066,0,0,0,.9502.90527,2.90034,2.90034,0,0,0,1.40723.36865,3.96655,3.96655,0,0,0,1.93848-.41357,5.95428,5.95428,0,0,0,1.60352-1.18408l1.16211.98291a5.05728,5.05728,0,0,1-.9668,1.02246,5.68314,5.68314,0,0,1-1.18945.73193,6.09948,6.09948,0,0,1-1.33008.42969A6.51779,6.51779,0,0,1,517.52189,155.67676Zm1.47461-10.83789a2.95162,2.95162,0,0,0-1.40723.2627,3.88611,3.88611,0,0,0-1.1123.7876,5.28555,5.28555,0,0,0-.84277,1.12842,8.52426,8.52426,0,0,0-.59277,1.28516l6.30176.022.04492-.20068a3.41064,3.41064,0,0,0-.01172-1.1958,2.72791,2.72791,0,0,0-.4248-1.03906,2.38078,2.38078,0,0,0-1.95508-1.05029Z"/><path d="M550.03458,150.53711a7.44484,7.44484,0,0,1-.7373,2.06152,6.11145,6.11145,0,0,1-1.2793,1.64795,5.63253,5.63253,0,0,1-1.75391,1.07813,5.4746,5.4746,0,0,1-2.16211.35205,4.57763,4.57763,0,0,1-1.7041-.34082,4.14883,4.14883,0,0,1-1.28418-.84912,4.47851,4.47851,0,0,1-.88867-1.23486,6.9103,6.9103,0,0,1-.53027-1.49707,8.13733,8.13733,0,0,1-.207-1.63672,10.272,10.272,0,0,1,.08887-1.65918l.3584-2.26807a13.13541,13.13541,0,0,1,.41895-1.76514,10.87057,10.87057,0,0,1,.68164-1.69287,8.95625,8.95625,0,0,1,.95508-1.5083,6.26067,6.26067,0,0,1,1.24512-1.20654,5.68545,5.68545,0,0,1,1.54785-.79346,5.44459,5.44459,0,0,1,1.86621-.26221,4.67364,4.67364,0,0,1,1.999.44092,4.17286,4.17286,0,0,1,1.41895,1.123,4.94048,4.94048,0,0,1,.86621,1.64258,7.75039,7.75039,0,0,1,.34082,2.01074h-2a7.37167,7.37167,0,0,0-.17871-1.2959,3.46949,3.46949,0,0,0-.46387-1.11719,2.52931,2.52931,0,0,0-.82617-.79883,2.56468,2.56468,0,0,0-1.26855-.32959,3.33491,3.33491,0,0,0-1.335.2124,3.71882,3.71882,0,0,0-1.07227.64209,4.22393,4.22393,0,0,0-.82715.9668,8.21709,8.21709,0,0,0-.61426,1.17871,9.36471,9.36471,0,0,0-.43555,1.27344q-.17432.65332-.27441,1.25684l-.37988,2.30176q-.07764.52515-.11133,1.13379a8.23054,8.23054,0,0,0,.02246,1.2124,6.28933,6.28933,0,0,0,.21777,1.16748,3.27282,3.27282,0,0,0,.47461,1.00586,2.40875,2.40875,0,0,0,.80469.71484,2.58981,2.58981,0,0,0,1.19531.2959,3.28344,3.28344,0,0,0,1.43555-.23437,3.59533,3.59533,0,0,0,1.1123-.7373,4.30539,4.30539,0,0,0,.80957-1.10645,7.10944,7.10944,0,0,0,.53027-1.35156Z"/><path d="M561.50919,151.252a2.034,2.034,0,0,0-.168-1.16748,2.5641,2.5641,0,0,0-.67578-.83789,4.31582,4.31582,0,0,0-.9834-.59766q-.55225-.24536-1.07812-.44678a14.09315,14.09315,0,0,1-1.5752-.71533,6.46792,6.46792,0,0,1-1.39062-.97754,4.312,4.312,0,0,1-.9668-1.30713,3.4439,3.4439,0,0,1-.30176-1.71484,4.13566,4.13566,0,0,1,.58105-1.91064,5.00228,5.00228,0,0,1,1.31348-1.44141,5.84817,5.84817,0,0,1,1.78125-.89355,6.216,6.216,0,0,1,1.97754-.2793,5.12485,5.12485,0,0,1,1.93359.40186,4.52993,4.52993,0,0,1,2.49121,2.57568,4.86091,4.86091,0,0,1,.3125,1.93848H562.7045a4.96656,4.96656,0,0,0-.207-1.2124,2.93112,2.93112,0,0,0-.51367-.98877,2.48339,2.48339,0,0,0-.84863-.67578,2.92119,2.92119,0,0,0-1.21289-.27393,3.76466,3.76466,0,0,0-1.19531.17334,3.60943,3.60943,0,0,0-1.07227.53613,3.08028,3.08028,0,0,0-.79883.86035,2.65874,2.65874,0,0,0-.38574,1.15625,1.85206,1.85206,0,0,0,.18457,1.106,2.49344,2.49344,0,0,0,.68164.7876,4.62685,4.62685,0,0,0,.96094.56445q.53027.23438,1.0332.41357a12.46077,12.46077,0,0,1,1.626.73145,6.42267,6.42267,0,0,1,1.41309,1.02246,4.44051,4.44051,0,0,1,.9668,1.36865,3.67073,3.67073,0,0,1,.28418,1.78223,4.09221,4.09221,0,0,1-.61426,1.93848,4.87568,4.87568,0,0,1-1.35156,1.40771,6.0012,6.0012,0,0,1-1.82129.84326,6.92211,6.92211,0,0,1-2.01074.25732,5.65007,5.65007,0,0,1-2.00586-.37451,5.115,5.115,0,0,1-1.63086-1.00537,4.49986,4.49986,0,0,1-1.08984-1.54736,4.74494,4.74494,0,0,1-.36914-2h2.04492a3.95963,3.95963,0,0,0,.2627,1.2793,3.01368,3.01368,0,0,0,.626.98877,2.85266,2.85266,0,0,0,.96094.65332,3.359,3.359,0,0,0,1.2793.25146,4.5,4.5,0,0,0,1.24023-.15088,3.703,3.703,0,0,0,1.11719-.49707,2.966,2.966,0,0,0,.83789-.84375A2.67068,2.67068,0,0,0,561.50919,151.252Z"/><path d="M574.93888,151.252a2.034,2.034,0,0,0-.168-1.16748,2.5641,2.5641,0,0,0-.67578-.83789,4.31582,4.31582,0,0,0-.9834-.59766q-.55225-.24536-1.07812-.44678a14.09315,14.09315,0,0,1-1.5752-.71533,6.46792,6.46792,0,0,1-1.39062-.97754,4.312,4.312,0,0,1-.9668-1.30713,3.4439,3.4439,0,0,1-.30176-1.71484,4.13566,4.13566,0,0,1,.58105-1.91064,5.00228,5.00228,0,0,1,1.31348-1.44141,5.84817,5.84817,0,0,1,1.78125-.89355,6.216,6.216,0,0,1,1.97754-.2793,5.12485,5.12485,0,0,1,1.93359.40186,4.52993,4.52993,0,0,1,2.49121,2.57568,4.86091,4.86091,0,0,1,.3125,1.93848h-2.05566a4.96656,4.96656,0,0,0-.207-1.2124,2.93112,2.93112,0,0,0-.51367-.98877,2.48339,2.48339,0,0,0-.84863-.67578,2.92119,2.92119,0,0,0-1.21289-.27393,3.76466,3.76466,0,0,0-1.19531.17334,3.60943,3.60943,0,0,0-1.07227.53613,3.08028,3.08028,0,0,0-.79883.86035,2.65874,2.65874,0,0,0-.38574,1.15625,1.85206,1.85206,0,0,0,.18457,1.106,2.49344,2.49344,0,0,0,.68164.7876,4.62685,4.62685,0,0,0,.96094.56445q.53027.23438,1.0332.41357a12.46077,12.46077,0,0,1,1.626.73145,6.42267,6.42267,0,0,1,1.41309,1.02246,4.44051,4.44051,0,0,1,.9668,1.36865,3.67073,3.67073,0,0,1,.28418,1.78223,4.09221,4.09221,0,0,1-.61426,1.93848,4.87568,4.87568,0,0,1-1.35156,1.40771,6.0012,6.0012,0,0,1-1.82129.84326,6.92211,6.92211,0,0,1-2.01074.25732,5.65007,5.65007,0,0,1-2.00586-.37451,5.115,5.115,0,0,1-1.63086-1.00537,4.49986,4.49986,0,0,1-1.08984-1.54736,4.74494,4.74494,0,0,1-.36914-2h2.04492a3.95963,3.95963,0,0,0,.2627,1.2793,3.01368,3.01368,0,0,0,.626.98877,2.85266,2.85266,0,0,0,.96094.65332,3.359,3.359,0,0,0,1.2793.25146,4.5,4.5,0,0,0,1.24023-.15088,3.703,3.703,0,0,0,1.11719-.49707,2.966,2.966,0,0,0,.83789-.84375A2.67068,2.67068,0,0,0,574.93888,151.252Z"/><path d="M593.48575,149.38623a11.77112,11.77112,0,0,1,.30762-1.51367,8.71943,8.71943,0,0,1,.541-1.46924,7.65447,7.65447,0,0,1,.78809-1.30713,5.24643,5.24643,0,0,1,1.04492-1.05029,4.66386,4.66386,0,0,1,1.3125-.69287,4.55182,4.55182,0,0,1,1.5918-.22363,4.3976,4.3976,0,0,1,1.75977.397,3.26317,3.26317,0,0,1,1.34668,1.16748l.39063-1.32959h1.85547l-2.01172,11.832a6.54306,6.54306,0,0,1-.63086,2.06689,5.28126,5.28126,0,0,1-2.93848,2.63086,5.65951,5.65951,0,0,1-2.15039.32959,5.43838,5.43838,0,0,1-1.19629-.15625,5.37321,5.37321,0,0,1-1.12793-.41309,5.04652,5.04652,0,0,1-.99414-.65381,4.44612,4.44612,0,0,1-.80469-.88818l1.15039-1.24023a4.27,4.27,0,0,0,1.24609,1.19531,3.23143,3.23143,0,0,0,1.65918.46924,3.75617,3.75617,0,0,0,1.40234-.20654,3.35457,3.35457,0,0,0,1.10547-.65381,3.65419,3.65419,0,0,0,.79395-1.02783,4.88279,4.88279,0,0,0,.46289-1.32959l.22363-1.061a5.04747,5.04747,0,0,1-1.542,1.07227,4.3138,4.3138,0,0,1-1.85449.34668,3.6498,3.6498,0,0,1-1.40234-.29639,3.388,3.388,0,0,1-1.0498-.72607,3.90537,3.90537,0,0,1-.72656-1.05029,6.046,6.046,0,0,1-.43555-1.2627,7.85265,7.85265,0,0,1-.18457-1.36279,8.20725,8.20725,0,0,1,.04492-1.35742Zm1.98828.23486a7.5952,7.5952,0,0,0-.05566.93848,6.75625,6.75625,0,0,0,.06738.96094,4.3,4.3,0,0,0,.22852.89941,2.58374,2.58374,0,0,0,.44141.75977,2.107,2.107,0,0,0,.6875.53027,2.42533,2.42533,0,0,0,.98828.22363,2.94479,2.94479,0,0,0,1.749-.47461,4.99524,4.99524,0,0,0,1.30176-1.29053l.94922-5.5752a2.76966,2.76966,0,0,0-.91016-1.24023,2.499,2.499,0,0,0-1.46973-.46924,2.97294,2.97294,0,0,0-1.63086.36865,3.77711,3.77711,0,0,0-1.168,1.05566,5.57089,5.57089,0,0,0-.75391,1.46387,8.51383,8.51383,0,0,0-.39062,1.61426Z"/><path d="M615.89786,143.11865q.5376.011,1.07324.07227a4.50625,4.50625,0,0,1,1.0498.25146l-.51367,2.01123q-.53613-.123-1.07227-.20117a8.72281,8.72281,0,0,0-1.084-.08936,4.239,4.239,0,0,0-2.41309.64795,5.16266,5.16266,0,0,0-1.67676,1.877l-1.33984,7.76514h-2.02246l2.08887-12.08887h1.92188l-.335,1.92188a7.89424,7.89424,0,0,1,.90527-.894,5.8472,5.8472,0,0,1,1.0166-.687,5.00668,5.00668,0,0,1,1.13379-.43555A5.16432,5.16432,0,0,1,615.89786,143.11865Z"/><path d="M622.18888,143.36426h6.40137l-1.66406,9.564h3.18359l-.44629,2.5249h-9.5752l.43555-2.5249h3.34082l1.21777-7.02783h-3.34082Zm3.65332-3.03906a1.749,1.749,0,0,1,.13379-.69238,1.632,1.632,0,0,1,.374-.542,1.74742,1.74742,0,0,1,.55859-.35742,2.07129,2.07129,0,0,1,1.3584-.02832,1.62063,1.62063,0,0,1,.54688.32422,1.56865,1.56865,0,0,1,.51367,1.18408,1.73274,1.73274,0,0,1-.13379.69287,1.6392,1.6392,0,0,1-.92676.89941,1.86148,1.86148,0,0,1-.69336.12842,1.79214,1.79214,0,0,1-.66992-.10059,1.60666,1.60666,0,0,1-.54785-.32373,1.57077,1.57077,0,0,1-.51367-1.18457Z"/><path d="M633.47306,149.38623a10.88331,10.88331,0,0,1,.291-1.5083,9.25959,9.25959,0,0,1,.51953-1.46338,7.43792,7.43792,0,0,1,.75977-1.313,4.99127,4.99127,0,0,1,1.02148-1.05029,4.60692,4.60692,0,0,1,1.29688-.687,4.5051,4.5051,0,0,1,1.58594-.22363,3.71971,3.71971,0,0,1,1.52539.35205,3.5101,3.5101,0,0,1,1.21191.97754l1.16211-6.17822h3.03906l-2.97168,17.16113h-2.71582l.15723-1.2627a4.966,4.966,0,0,1-1.4248,1.10645,3.90961,3.90961,0,0,1-3.17871.0835,3.32818,3.32818,0,0,1-1.03906-.72607,3.87723,3.87723,0,0,1-.71484-1.04443,5.855,5.855,0,0,1-.4248-1.25732,7.84522,7.84522,0,0,1-.17285-1.36279,9.586,9.586,0,0,1,.03906-1.35742Zm3.00586.24609a10.78556,10.78556,0,0,0-.06152,1.106,3.8484,3.8484,0,0,0,.15039,1.13379,2.066,2.066,0,0,0,.51953.894,1.48655,1.48655,0,0,0,1.04492.38525,2.30969,2.30969,0,0,0,1.34082-.34082,3.82944,3.82944,0,0,0,1.00586-.94385l.87109-4.916a1.89134,1.89134,0,0,0-1.84375-1.30713,2.2768,2.2768,0,0,0-1.2959.335,3.01132,3.01132,0,0,0-.89355.894,4.421,4.421,0,0,0-.54785,1.21777,8.58889,8.58889,0,0,0-.26758,1.30713Z"/><path class="a" d="M271.18634,35.21951a4.228,4.228,0,0,0-2.422,1.211c-3.63293,20.58658-4.8439,39.96219-9.6878,60.54877-7.26585,24.21951-10.89878,48.439-14.5317,73.8695,0,1.211-2.422,2.422-3.63293,2.422-16.95366-2.422-35.11829-2.422-50.861-9.6878-1.211,0,2.422-4.8439,1.211-7.26585,12.10975,2.422,23.00853,6.05488,35.11829,6.05488,2.422,0,8.47683-1.211,8.47683-3.63293,7.26585-19.37561,8.47683-38.75121,14.5317-58.12682,4.8439-21.79756,9.6878-43.59511,10.89878-65.39267-3.63293,1.211-1.211-6.05488-7.26585,0-2.422,16.95366-3.63293,33.90731-8.47683,50.861-6.05488,23.00853-12.10975,43.59511-16.95366,66.60365,0,1.211-2.422,2.422-3.63293,2.422-10.89878-2.422-20.58658-4.8439-31.48536-7.26585,1.211-2.422,1.211-6.05488,1.211-8.47683,8.47683,0,18.16463,9.6878,26.64146,1.211,8.47683-32.69634,19.37561-64.1817,24.21951-98.089,0-3.63293,1.211-7.26585,0-9.6878-1.211-1.211-4.8439-2.422-4.8439-1.211C232.43512,58.228,228.8022,86.08047,219.11439,111.511c-1.211,3.63293-1.211,7.26585-2.422,10.89878s-1.211,9.6878-4.8439,10.89878c-6.05488,2.422-10.89878-1.211-16.95366-2.422a3.86666,3.86666,0,0,1,3.63293-3.63293c1.211,0,2.422,1.211,3.63293,1.211,2.422,0,4.8439-1.211,7.26585-2.422,6.05488-6.05488,6.05488-13.32073,1.211-20.58658-1.211-2.422,0-4.8439,0-7.26585,3.63293-9.6878,9.6878-18.16463,10.89878-29.06341C225.16927,48.54024,215.48147,29.16463,208.21561,11c-9.6878,14.5317-21.79756,27.85243-29.06341,43.59511-3.63293,8.47683-2.422,18.16463-4.8439,27.85243a59.03793,59.03793,0,0,1-3.63293,8.47683c-2.422,2.422-4.8439,2.422-7.26585,4.8439a12.44614,12.44614,0,0,0,0,20.58658,4.44872,4.44872,0,0,0,3.63293,1.211c1.211,1.211,2.422,3.63293,0,4.8439-4.8439,1.211-10.89878,0-13.32073-3.63293-2.422-4.8439,0-9.6878,1.211-14.5317,8.47683-29.06341,20.58658-55.70487,19.37561-85.97925,0-1.211-3.63293-2.422-4.8439-2.422a4.228,4.228,0,0,0-2.422,1.211c-4.8439,12.10975-2.422,24.21951-6.05488,36.32926-4.8439,15.74268-8.47683,30.27438-13.32073,46.01707-2.422,8.47683-4.8439,15.74268-3.63293,24.21951a2.60455,2.60455,0,0,0,2.422,2.422c6.05488,2.422,14.5317,1.211,18.16463,6.05488,1.211,1.211,0,6.05488,0,8.47683-10.89878-2.422-20.58658-4.8439-31.48536-7.26585,2.422-14.5317,4.8439-30.27439,8.47683-44.80609a549.40629,549.40629,0,0,0,14.5317-64.1817V15.8439a2.60455,2.60455,0,0,0-2.422-2.422c-6.05488-1.211-7.26585,4.8439-7.26585,8.47683,0,6.05488-1.211,10.89878-2.422,16.95366-3.63293,32.69634-15.74268,64.1817-19.37561,96.878,0,3.63293,3.63293,6.05488,4.8439,6.05488,12.10975,2.422,23.00853,6.05488,33.90731,7.26585-1.211,2.422-1.211,6.05488-1.211,8.47683a266.16622,266.16622,0,0,0-44.80609-7.26585c-1.211,0-2.422-3.63293-2.422-4.8439,1.211-19.37561,4.8439-38.75121,9.6878-58.12682a346.80252,346.80252,0,0,0,8.47683-33.90731c2.422-13.32073,6.05488-26.64146,3.63293-39.96219,0-2.422-6.05488-2.422-6.05488,0-7.26585,42.38414-15.74268,79.92438-23.00853,121.09754-1.211,8.47683-4.8439,21.79756,6.05488,25.43048,3.63293,1.211,7.26585,0,10.89878,0,42.38414,6.05488,81.13535,19.37561,123.51949,20.58658,2.422,0,3.63293-2.422,4.8439-3.63293,1.211-8.47683,1.211-15.74268,2.422-24.21951,7.26585-38.75121,16.95366-73.8695,20.58658-112.62071,0-2.422,0-3.63293-4.8439-4.8439Z"/><path class="b" d="M188.84,129.67559v-3.63293c-1.211-1.211-1.211-2.422-2.422-3.63293-3.63293-2.422-10.89878-3.63293-12.10975,2.422,4.8439,1.211,8.47683,4.8439,14.5317,4.8439Z"/><path class="b" d="M179.15221,107.878c-1.211,2.422-2.422,4.8439-6.05488,6.05488a10.91707,10.91707,0,0,1-6.05488-1.211c-4.8439-2.422-4.8439-9.6878,0-13.32073a10.91707,10.91707,0,0,1,6.05488-1.211c3.63293,1.211,7.26585,4.8439,6.05488,9.6878Z"/><path class="a" d="M173.09733,107.878c-1.211,0-1.211,1.211-2.422,1.211a4.228,4.228,0,0,1-1.211-2.422,4.228,4.228,0,0,1,2.422-1.211,4.228,4.228,0,0,1,1.211,2.422Z"/><path class="b" d="M209.42659,117.56584c-1.211,1.211-1.211,3.63293-2.422,4.8439s-3.63293,1.211-6.05488,1.211c-6.05488-2.422-10.89878-9.6878-3.63293-14.5317a10.91707,10.91707,0,0,1,6.05488-1.211,4.44872,4.44872,0,0,1,3.63293,1.211c1.211,2.422,3.63293,4.8439,2.422,8.47683Z"/><path class="a" d="M203.37171,116.35486l-2.422,2.422c0-1.211-1.211-2.422-1.211-3.63293a4.228,4.228,0,0,1,2.422-1.211,4.228,4.228,0,0,1,1.211,2.422Z"/></svg>